<svg width="41" height="41" viewBox="0 0 41 41" fill="none" xmlns="http://www.w3.org/2000/svg">
<path d="M8.54175 11.9584H32.0997C32.577 11.9584 33.049 12.0584 33.4854 12.252C33.9217 12.4457 34.3126 12.7285 34.6329 13.0825C34.9532 13.4364 35.1957 13.8535 35.345 14.307C35.4942 14.7604 35.5467 15.24 35.4992 15.715L34.4742 25.965C34.3899 26.8081 33.9954 27.5897 33.3672 28.1583C32.739 28.7268 31.9219 29.0417 31.0747 29.0417H14.7601C13.9699 29.042 13.2041 28.7685 12.593 28.2676C11.9818 27.7667 11.5632 27.0695 11.4083 26.2947L8.54175 11.9584Z" stroke="#BA3C16" stroke-width="2" stroke-linejoin="round"/>
<path d="M8.54175 11.9583L7.158 6.41821C7.06545 6.04879 6.85212 5.72088 6.55189 5.48658C6.25166 5.25227 5.88175 5.12501 5.50091 5.125H3.41675" stroke="#BA3C16" stroke-width="2" stroke-linecap="round" stroke-linejoin="round"/>
<path d="M13.6667 35.875H17.0834" stroke="#BA3C16" stroke-width="2" stroke-linecap="round" stroke-linejoin="round"/>
<path d="M27.3335 35.875H30.7502" stroke="#BA3C16" stroke-width="2" stroke-linecap="round" stroke-linejoin="round"/>
</svg>
