<svg width="30" height="35" viewBox="0 0 30 35" fill="none" xmlns="http://www.w3.org/2000/svg">
<path d="M29.0031 12.7902L26.9524 10.4919L18.6323 19.9847C18.5347 20.2955 18.3979 20.5509 18.2222 20.7507C17.8315 21.1948 17.353 21.3725 16.7867 21.2837C16.2789 21.3059 15.8492 21.1171 15.4976 20.7174C15.3219 20.5398 15.1949 20.3066 15.1168 20.018L14.0328 18.7856C13.9938 18.8522 13.4615 19.5239 12.4362 20.8007C11.4108 22.0775 10.8493 22.7714 10.7517 22.8824C10.361 23.3265 9.87278 23.5042 9.28686 23.4154C8.77906 23.4376 8.34938 23.2488 7.99783 22.8491C7.82205 22.6715 7.6951 22.4383 7.61698 22.1497L7.4705 21.9831L3.89638 26.0467C3.87685 26.0689 3.85243 26.0911 3.82314 26.1133C3.79384 26.1355 3.76943 26.1577 3.7499 26.1799V29.8438H28.1242C28.632 29.8438 29.0715 30.0547 29.4426 30.4766C29.8136 30.8985 29.9992 31.4037 29.9992 31.9921C29.9992 32.5805 29.8136 33.0802 29.4426 33.491C29.0715 33.9018 28.632 34.1071 28.1242 34.1071H1.87495C1.34762 34.1071 0.903296 33.9018 0.541978 33.491C0.180659 33.0802 0 32.575 0 31.9755V2.1317C0 1.55436 0.180659 1.05475 0.541978 0.632847C0.903296 0.210949 1.34274 0 1.8603 0C2.37787 0 2.82219 0.210949 3.19327 0.632847C3.56436 1.05475 3.7499 1.55436 3.7499 2.1317V20.6175L5.74203 18.3526C5.82016 18.0861 5.9471 17.853 6.12288 17.6531C6.47443 17.2534 6.90411 17.0647 7.41191 17.0869C7.9783 17.0203 8.4568 17.1979 8.84742 17.6198C9.02319 17.8197 9.15991 18.0861 9.25756 18.4192L9.34545 18.5191L12.3044 15.155C12.3825 14.8886 12.5094 14.6554 12.6852 14.4556C13.0368 14.0559 13.4664 13.8671 13.9742 13.8893C14.5602 13.8227 15.0387 14.0004 15.4097 14.4223C15.5855 14.6221 15.7222 14.8886 15.8199 15.2216L16.8452 16.3874L24.4915 7.69409L22.4994 5.42916C22.4799 4.62978 22.6947 4.24119 23.1439 4.26339H29.0617C29.3351 4.2856 29.5549 4.39107 29.7209 4.57982C29.8869 4.76856 29.9797 5.01837 29.9992 5.32924V12.0574C30.0187 12.5903 29.6867 12.8346 29.0031 12.7902Z" fill="white"/>
</svg>
