<svg width="44" height="51" viewBox="0 0 44 51" fill="none" xmlns="http://www.w3.org/2000/svg">
<path d="M39.111 11.7593H4.88878C4.24047 11.7593 3.61872 12.0521 3.1603 12.5733C2.70187 13.0944 2.44434 13.8013 2.44434 14.5384V36.7712C2.44434 37.5082 2.70187 38.2151 3.1603 38.7363C3.61872 39.2575 4.24047 39.5503 4.88878 39.5503H39.111C39.7593 39.5503 40.3811 39.2575 40.8395 38.7363C41.2979 38.2151 41.5554 37.5082 41.5554 36.7712V14.5384C41.5554 13.8013 41.2979 13.0944 40.8395 12.5733C40.3811 12.0521 39.7593 11.7593 39.111 11.7593ZM4.88878 36.7712V30.0319C6.41666 30.1598 7.85192 30.9132 8.92845 32.1524C10.005 33.3917 10.6498 35.0327 10.7432 36.7712H4.88878ZM4.88878 21.2777V14.5384H10.7432C10.6498 16.2769 10.005 17.9179 8.92845 19.1571C7.85192 20.3964 6.41666 21.1498 4.88878 21.2777ZM21.9999 35.5901C17.7588 35.5901 14.2999 31.1296 14.2999 25.6548C14.2999 20.18 17.7588 15.7195 21.9999 15.7195C26.241 15.7195 29.6999 20.18 29.6999 25.6548C29.6999 31.1296 26.241 35.5901 21.9999 35.5901ZM39.111 36.7712H33.3054C33.3975 35.0415 34.0354 33.4076 35.1018 32.1696C36.1683 30.9316 37.5918 30.1725 39.111 30.0319V36.7712ZM39.111 21.2777C37.5918 21.137 36.1683 20.378 35.1018 19.14C34.0354 17.9019 33.3975 16.2681 33.3054 14.5384H39.111V21.2777Z" fill="white"/>
<path d="M22 32.2133C24.7 32.2133 26.8889 29.2769 26.8889 25.6546C26.8889 22.0324 24.7 19.0959 22 19.0959C19.2999 19.0959 17.1111 22.0324 17.1111 25.6546C17.1111 29.2769 19.2999 32.2133 22 32.2133Z" fill="white"/>
</svg>
