<svg width="62" height="62" viewBox="0 0 62 62" fill="none" xmlns="http://www.w3.org/2000/svg">
<path d="M0.25 31C0.25 26.9619 1.04537 22.9632 2.5907 19.2325C4.13604 15.5017 6.40106 12.1119 9.25647 9.25647C12.1119 6.40107 15.5017 4.13604 19.2325 2.5907C22.9632 1.04537 26.9619 0.25 31 0.25C35.0381 0.25 39.0368 1.04537 42.7675 2.5907C46.4983 4.13604 49.8881 6.40107 52.7435 9.25647C55.5989 12.1119 57.864 15.5017 59.4093 19.2325C60.9546 22.9632 61.75 26.9619 61.75 31C61.75 39.1554 58.5103 46.9768 52.7435 52.7435C46.9768 58.5103 39.1554 61.75 31 61.75C22.8446 61.75 15.0232 58.5103 9.25647 52.7435C3.48972 46.9768 0.25 39.1554 0.25 31ZM31 15.625C30.3204 15.625 29.6686 15.895 29.188 16.3755C28.7075 16.8561 28.4375 17.5079 28.4375 18.1875V28.4375H18.1875C17.5079 28.4375 16.8561 28.7075 16.3755 29.188C15.895 29.6686 15.625 30.3204 15.625 31C15.625 31.6796 15.895 32.3314 16.3755 32.812C16.8561 33.2925 17.5079 33.5625 18.1875 33.5625H28.4375V43.8125C28.4375 44.4921 28.7075 45.1439 29.188 45.6245C29.6686 46.105 30.3204 46.375 31 46.375C31.6796 46.375 32.3314 46.105 32.812 45.6245C33.2925 45.1439 33.5625 44.4921 33.5625 43.8125V33.5625H43.8125C44.4921 33.5625 45.1439 33.2925 45.6245 32.812C46.105 32.3314 46.375 31.6796 46.375 31C46.375 30.3204 46.105 29.6686 45.6245 29.188C45.1439 28.7075 44.4921 28.4375 43.8125 28.4375H33.5625V18.1875C33.5625 17.5079 33.2925 16.8561 32.812 16.3755C32.3314 15.895 31.6796 15.625 31 15.625Z" fill="white"/>
</svg>
